<svg width="30" height="20" viewBox="0 0 30 20" fill="none" xmlns="http://www.w3.org/2000/svg">
<g filter="url(#filter0_d_593_3078)">
<path d="M6.15625 13.8516H18.6328C19.2995 13.8516 19.9089 13.7969 20.4609 13.6875C21.013 13.5781 21.487 13.3255 21.8828 12.9297C22.2839 12.5286 22.5365 12.0547 22.6406 11.5078C22.7448 10.9609 22.7969 10.3516 22.7969 9.67969V7.03906C22.7969 6.3724 22.7448 5.76562 22.6406 5.21875C22.5365 4.67188 22.2839 4.19792 21.8828 3.79688C21.4818 3.40104 21.0052 3.14844 20.4531 3.03906C19.9062 2.92969 19.2995 2.875 18.6328 2.875H6.14062C5.48438 2.875 4.88021 2.92969 4.32812 3.03906C3.78125 3.14844 3.30729 3.40365 2.90625 3.80469C2.51042 4.20052 2.25781 4.67188 2.14844 5.21875C2.04427 5.76562 1.99219 6.36719 1.99219 7.02344V9.67969C1.99219 10.3516 2.04427 10.9609 2.14844 11.5078C2.2526 12.0547 2.50521 12.5286 2.90625 12.9297C3.30729 13.3255 3.78125 13.5781 4.32812 13.6875C4.88021 13.7969 5.48958 13.8516 6.15625 13.8516ZM5.94531 12.5938C5.54427 12.5938 5.14844 12.5547 4.75781 12.4766C4.3724 12.3984 4.0599 12.2422 3.82031 12.0078C3.58594 11.7734 3.43229 11.4635 3.35938 11.0781C3.28646 10.6927 3.25 10.2995 3.25 9.89844V6.85156C3.25 6.4401 3.28646 6.04167 3.35938 5.65625C3.43229 5.26562 3.58594 4.95052 3.82031 4.71094C4.05469 4.47656 4.36719 4.32292 4.75781 4.25C5.15365 4.17188 5.55729 4.13281 5.96875 4.13281H18.8438C19.2448 4.13281 19.638 4.17188 20.0234 4.25C20.4141 4.32292 20.7292 4.47917 20.9688 4.71875C21.2031 4.95312 21.3568 5.26302 21.4297 5.64844C21.5026 6.03385 21.5391 6.42708 21.5391 6.82812V9.89844C21.5391 10.2995 21.5026 10.6927 21.4297 11.0781C21.3568 11.4635 21.2031 11.7734 20.9688 12.0078C20.7292 12.2474 20.4141 12.4062 20.0234 12.4844C19.638 12.5573 19.2448 12.5938 18.8438 12.5938H5.94531ZM23.8594 10.3828C24.0677 10.3672 24.2839 10.276 24.5078 10.1094C24.7318 9.9375 24.9219 9.70312 25.0781 9.40625C25.2344 9.10938 25.3125 8.76042 25.3125 8.35938C25.3125 7.96354 25.2344 7.61719 25.0781 7.32031C24.9219 7.02344 24.7318 6.78906 24.5078 6.61719C24.2839 6.44531 24.0677 6.35417 23.8594 6.34375V10.3828ZM5.63281 11.6016H19.1641C19.4349 11.6016 19.6536 11.5807 19.8203 11.5391C19.987 11.4974 20.1302 11.4193 20.25 11.3047C20.3646 11.1901 20.4427 11.0495 20.4844 10.8828C20.5312 10.7109 20.5547 10.4896 20.5547 10.2188V6.50781C20.5547 6.23698 20.5312 6.01823 20.4844 5.85156C20.4427 5.67969 20.3646 5.53646 20.25 5.42188C20.1302 5.30208 19.987 5.22396 19.8203 5.1875C19.6536 5.14583 19.4349 5.125 19.1641 5.125H5.63281C5.35677 5.125 5.13542 5.14583 4.96875 5.1875C4.80208 5.22396 4.66146 5.30208 4.54688 5.42188C4.43229 5.53646 4.35156 5.67969 4.30469 5.85156C4.26302 6.01823 4.24219 6.23698 4.24219 6.50781V10.2188C4.24219 10.4896 4.26302 10.7109 4.30469 10.8828C4.35156 11.0495 4.43229 11.1901 4.54688 11.3047C4.66667 11.4193 4.80729 11.4974 4.96875 11.5391C5.13542 11.5807 5.35677 11.6016 5.63281 11.6016Z" fill="white" fill-opacity="0.9"/>
</g>
<defs>
<filter id="filter0_d_593_3078" x="-2.00781" y="0.875" width="31.3203" height="18.9766" filterUnits="userSpaceOnUse" color-interpolation-filters="sRGB">
<feFlood flood-opacity="0" result="BackgroundImageFix"/>
<feColorMatrix in="SourceAlpha" type="matrix" values="0 0 0 0 0 0 0 0 0 0 0 0 0 0 0 0 0 0 127 0" result="hardAlpha"/>
<feOffset dy="2"/>
<feGaussianBlur stdDeviation="2"/>
<feColorMatrix type="matrix" values="0 0 0 0 0 0 0 0 0 0 0 0 0 0 0 0 0 0 0.15 0"/>
<feBlend mode="normal" in2="BackgroundImageFix" result="effect1_dropShadow_593_3078"/>
<feBlend mode="normal" in="SourceGraphic" in2="effect1_dropShadow_593_3078" result="shape"/>
</filter>
</defs>
</svg>
