<svg width="28" height="24" viewBox="0 0 28 24" fill="none" xmlns="http://www.w3.org/2000/svg">
<g filter="url(#filter0_d_593_3083)">
<path d="M11.8047 14.5234C12.4505 14.5234 13.0573 14.401 13.625 14.1562C14.1927 13.9115 14.6927 13.5729 15.125 13.1406C15.5573 12.7031 15.8958 12.2005 16.1406 11.6328C16.3906 11.0651 16.5156 10.4583 16.5156 9.8125C16.5156 9.16667 16.3906 8.5599 16.1406 7.99219C15.8958 7.42448 15.5573 6.92448 15.125 6.49219C14.6927 6.0599 14.1927 5.72135 13.625 5.47656C13.0573 5.22656 12.4505 5.10156 11.8047 5.10156C11.1589 5.10156 10.5521 5.22656 9.98438 5.47656C9.41667 5.72135 8.91406 6.0599 8.47656 6.49219C8.04427 6.92448 7.70573 7.42448 7.46094 7.99219C7.21615 8.5599 7.09375 9.16667 7.09375 9.8125C7.09375 10.4583 7.21615 11.0651 7.46094 11.6328C7.70573 12.2005 8.04427 12.7031 8.47656 13.1406C8.91406 13.5729 9.41667 13.9115 9.98438 14.1562C10.5521 14.401 11.1589 14.5234 11.8047 14.5234ZM11.8047 15.8203C10.9766 15.8203 10.2005 15.6641 9.47656 15.3516C8.7526 15.0391 8.11458 14.6068 7.5625 14.0547C7.01042 13.5026 6.57812 12.8646 6.26562 12.1406C5.95312 11.4167 5.79688 10.6406 5.79688 9.8125C5.79688 8.98438 5.95312 8.20833 6.26562 7.48438C6.57812 6.75521 7.01042 6.11719 7.5625 5.57031C8.11458 5.01823 8.7526 4.58594 9.47656 4.27344C10.2057 3.96094 10.9818 3.80469 11.8047 3.80469C12.6328 3.80469 13.4089 3.96094 14.1328 4.27344C14.8568 4.58594 15.4948 5.01823 16.0469 5.57031C16.599 6.1224 17.0312 6.76042 17.3438 7.48438C17.6562 8.20833 17.8125 8.98438 17.8125 9.8125C17.8125 10.6406 17.6562 11.4167 17.3438 12.1406C17.0312 12.8646 16.599 13.5026 16.0469 14.0547C15.4948 14.6068 14.8568 15.0391 14.1328 15.3516C13.4089 15.6641 12.6328 15.8203 11.8047 15.8203ZM19.6406 18.6562C19.5208 18.6562 19.4062 18.6354 19.2969 18.5938C19.1875 18.5521 19.0885 18.487 19 18.3984L14.8516 14.25L16.1328 13.0078L20.2578 17.1406C20.3464 17.224 20.4089 17.3203 20.4453 17.4297C20.487 17.5391 20.5078 17.651 20.5078 17.7656C20.5078 17.9323 20.4688 18.0807 20.3906 18.2109C20.3177 18.3464 20.2161 18.4531 20.0859 18.5312C19.9557 18.6146 19.8073 18.6562 19.6406 18.6562Z" fill="white" fill-opacity="0.9"/>
</g>
<defs>
<filter id="filter0_d_593_3083" x="1.79688" y="1.80469" width="22.7109" height="22.8516" filterUnits="userSpaceOnUse" color-interpolation-filters="sRGB">
<feFlood flood-opacity="0" result="BackgroundImageFix"/>
<feColorMatrix in="SourceAlpha" type="matrix" values="0 0 0 0 0 0 0 0 0 0 0 0 0 0 0 0 0 0 127 0" result="hardAlpha"/>
<feOffset dy="2"/>
<feGaussianBlur stdDeviation="2"/>
<feColorMatrix type="matrix" values="0 0 0 0 0 0 0 0 0 0 0 0 0 0 0 0 0 0 0.15 0"/>
<feBlend mode="normal" in2="BackgroundImageFix" result="effect1_dropShadow_593_3083"/>
<feBlend mode="normal" in="SourceGraphic" in2="effect1_dropShadow_593_3083" result="shape"/>
</filter>
</defs>
</svg>
