<svg width="22" height="23" viewBox="0 0 22 23" fill="none" xmlns="http://www.w3.org/2000/svg">
<g filter="url(#filter0_d_593_3081)">
<path d="M8.33594 17.7266H14.0078C14.6276 17.7266 15.1901 17.5911 15.6953 17.3203C16.2005 17.0547 16.6016 16.6797 16.8984 16.1953C17.2005 15.7161 17.3516 15.1562 17.3516 14.5156C17.3516 13.875 17.2005 13.3151 16.8984 12.8359C16.6016 12.3516 16.2005 11.9766 15.6953 11.7109C15.1901 11.4401 14.6276 11.3047 14.0078 11.3047H8.33594C7.71615 11.3047 7.15365 11.4401 6.64844 11.7109C6.14323 11.9766 5.73958 12.3516 5.4375 12.8359C5.14062 13.3151 4.99219 13.875 4.99219 14.5156C4.99219 15.1562 5.14062 15.7161 5.4375 16.1953C5.73958 16.6797 6.14323 17.0547 6.64844 17.3203C7.15365 17.5911 7.71615 17.7266 8.33594 17.7266ZM14.2109 16.5469C13.8359 16.5417 13.4948 16.4479 13.1875 16.2656C12.8802 16.0833 12.6354 15.8385 12.4531 15.5312C12.276 15.224 12.1875 14.8828 12.1875 14.5078C12.1875 14.138 12.276 13.7995 12.4531 13.4922C12.6354 13.1849 12.8802 12.9401 13.1875 12.7578C13.4948 12.5755 13.8359 12.4844 14.2109 12.4844C14.5859 12.4844 14.9271 12.5755 15.2344 12.7578C15.5469 12.9401 15.7943 13.1849 15.9766 13.4922C16.1589 13.7943 16.2474 14.1302 16.2422 14.5C16.2422 14.875 16.1484 15.2188 15.9609 15.5312C15.7786 15.8438 15.5339 16.0911 15.2266 16.2734C14.9245 16.4557 14.5859 16.5469 14.2109 16.5469ZM8.65625 10.1016H13.6953C14.362 10.1016 14.9714 9.95312 15.5234 9.65625C16.0807 9.35938 16.5234 8.94271 16.8516 8.40625C17.1849 7.86979 17.3516 7.2474 17.3516 6.53906C17.3516 5.83073 17.1849 5.20833 16.8516 4.67188C16.5234 4.13542 16.0807 3.71875 15.5234 3.42188C14.9714 3.125 14.362 2.97656 13.6953 2.97656H8.65625C7.98438 2.97656 7.36979 3.125 6.8125 3.42188C6.26042 3.71875 5.81771 4.13542 5.48438 4.67188C5.15625 5.20833 4.99219 5.83073 4.99219 6.53906C4.99219 7.2474 5.15625 7.86979 5.48438 8.40625C5.81771 8.94271 6.26042 9.35938 6.8125 9.65625C7.36979 9.95312 7.98438 10.1016 8.65625 10.1016ZM8.65625 8.92188C8.21875 8.92188 7.8099 8.82292 7.42969 8.625C7.05469 8.42188 6.75 8.14323 6.51562 7.78906C6.28646 7.42969 6.17188 7.01302 6.17188 6.53906C6.17188 6.0651 6.28646 5.65104 6.51562 5.29688C6.75 4.9375 7.05469 4.65885 7.42969 4.46094C7.8099 4.25781 8.21875 4.15625 8.65625 4.15625H13.6953C14.1276 4.15625 14.5312 4.25781 14.9062 4.46094C15.2865 4.65885 15.5911 4.9375 15.8203 5.29688C16.0547 5.65104 16.1719 6.0651 16.1719 6.53906C16.1719 7.01302 16.0547 7.42969 15.8203 7.78906C15.5911 8.14323 15.2865 8.42188 14.9062 8.625C14.5312 8.82292 14.1276 8.92188 13.6953 8.92188H8.65625ZM8.65625 8.39062C9 8.39583 9.3099 8.3151 9.58594 8.14844C9.86719 7.97656 10.0911 7.75 10.2578 7.46875C10.4297 7.18229 10.5156 6.86719 10.5156 6.52344C10.5208 6.17969 10.4401 5.86979 10.2734 5.59375C10.1068 5.3125 9.88021 5.09115 9.59375 4.92969C9.3125 4.76302 9 4.67969 8.65625 4.67969C8.3125 4.67969 8 4.76302 7.71875 4.92969C7.4375 5.09635 7.21354 5.32031 7.04688 5.60156C6.88542 5.88281 6.80469 6.19271 6.80469 6.53125C6.80469 6.875 6.88542 7.1875 7.04688 7.46875C7.21354 7.75 7.4375 7.97396 7.71875 8.14062C8 8.30729 8.3125 8.39062 8.65625 8.39062Z" fill="white" fill-opacity="0.9"/>
</g>
<defs>
<filter id="filter0_d_593_3081" x="0.992188" y="0.976562" width="20.3594" height="22.75" filterUnits="userSpaceOnUse" color-interpolation-filters="sRGB">
<feFlood flood-opacity="0" result="BackgroundImageFix"/>
<feColorMatrix in="SourceAlpha" type="matrix" values="0 0 0 0 0 0 0 0 0 0 0 0 0 0 0 0 0 0 127 0" result="hardAlpha"/>
<feOffset dy="2"/>
<feGaussianBlur stdDeviation="2"/>
<feColorMatrix type="matrix" values="0 0 0 0 0 0 0 0 0 0 0 0 0 0 0 0 0 0 0.15 0"/>
<feBlend mode="normal" in2="BackgroundImageFix" result="effect1_dropShadow_593_3081"/>
<feBlend mode="normal" in="SourceGraphic" in2="effect1_dropShadow_593_3081" result="shape"/>
</filter>
</defs>
</svg>
