<svg width="26" height="20" viewBox="0 0 26 20" fill="none" xmlns="http://www.w3.org/2000/svg">
<g filter="url(#filter0_d_593_3087)">
<path d="M12.6484 14.4922C12.7318 14.4922 12.8151 14.4661 12.8984 14.4141C12.987 14.362 13.1042 14.2656 13.25 14.125L15.0781 12.3672C15.1406 12.3099 15.1745 12.2448 15.1797 12.1719C15.1901 12.0938 15.1693 12.0208 15.1172 11.9531C14.8724 11.6354 14.5312 11.3594 14.0938 11.125C13.6615 10.8906 13.1797 10.7734 12.6484 10.7734C12.1068 10.7734 11.6146 10.8958 11.1719 11.1406C10.7344 11.3854 10.3932 11.6719 10.1484 12C10.112 12.0573 10.099 12.1198 10.1094 12.1875C10.125 12.25 10.1641 12.3099 10.2266 12.3672L12.0547 14.125C12.1953 14.2656 12.3099 14.362 12.3984 14.4141C12.487 14.4661 12.5703 14.4922 12.6484 14.4922ZM8.25781 10.3906C8.33594 10.4688 8.42188 10.5052 8.51562 10.5C8.60938 10.4948 8.69531 10.4505 8.77344 10.3672C9.22135 9.86198 9.79167 9.44792 10.4844 9.125C11.1771 8.80208 11.8984 8.64323 12.6484 8.64844C13.4089 8.64323 14.1354 8.80729 14.8281 9.14062C15.5208 9.46875 16.0964 9.88542 16.5547 10.3906C16.6276 10.4688 16.7083 10.5078 16.7969 10.5078C16.8854 10.5026 16.9661 10.4609 17.0391 10.3828L18.2031 9.23438C18.2656 9.17188 18.2995 9.10417 18.3047 9.03125C18.3099 8.95312 18.2865 8.88021 18.2344 8.8125C17.8542 8.34896 17.3776 7.9349 16.8047 7.57031C16.2318 7.20052 15.5911 6.91146 14.8828 6.70312C14.1745 6.48958 13.4297 6.38281 12.6484 6.38281C11.8672 6.38281 11.1224 6.48958 10.4141 6.70312C9.71094 6.91146 9.07292 7.20052 8.5 7.57031C7.92708 7.9349 7.45052 8.34896 7.07031 8.8125C7.01302 8.88021 6.98698 8.95052 6.99219 9.02344C6.9974 9.09635 7.03125 9.16667 7.09375 9.23438L8.25781 10.3906ZM5.13281 7.25781C5.20573 7.33594 5.28906 7.375 5.38281 7.375C5.48177 7.36979 5.5651 7.32812 5.63281 7.25C6.5599 6.27083 7.61979 5.52865 8.8125 5.02344C10.0052 4.51302 11.2839 4.25781 12.6484 4.25781C14.0182 4.25781 15.2995 4.51302 16.4922 5.02344C17.6901 5.53385 18.75 6.27865 19.6719 7.25781C19.7396 7.32552 19.8203 7.35938 19.9141 7.35938C20.0078 7.35938 20.0885 7.32031 20.1562 7.24219L21.1875 6.20312C21.2552 6.14062 21.2891 6.07031 21.2891 5.99219C21.2943 5.90885 21.2708 5.83594 21.2188 5.77344C20.6302 5.04948 19.888 4.40365 18.9922 3.83594C18.0964 3.26302 17.1042 2.8151 16.0156 2.49219C14.9323 2.16406 13.8099 2 12.6484 2C11.487 2 10.362 2.16406 9.27344 2.49219C8.1849 2.8151 7.19271 3.26302 6.29688 3.83594C5.40625 4.40365 4.66667 5.04948 4.07812 5.77344C4.02604 5.83594 4 5.90885 4 5.99219C4.00521 6.07031 4.03906 6.14062 4.10156 6.20312L5.13281 7.25781Z" fill="white" fill-opacity="0.9"/>
</g>
<defs>
<filter id="filter0_d_593_3087" x="0" y="0" width="25.29" height="20.4922" filterUnits="userSpaceOnUse" color-interpolation-filters="sRGB">
<feFlood flood-opacity="0" result="BackgroundImageFix"/>
<feColorMatrix in="SourceAlpha" type="matrix" values="0 0 0 0 0 0 0 0 0 0 0 0 0 0 0 0 0 0 127 0" result="hardAlpha"/>
<feOffset dy="2"/>
<feGaussianBlur stdDeviation="2"/>
<feColorMatrix type="matrix" values="0 0 0 0 0 0 0 0 0 0 0 0 0 0 0 0 0 0 0.15 0"/>
<feBlend mode="normal" in2="BackgroundImageFix" result="effect1_dropShadow_593_3087"/>
<feBlend mode="normal" in="SourceGraphic" in2="effect1_dropShadow_593_3087" result="shape"/>
</filter>
</defs>
</svg>
