<svg width="15" height="12" viewBox="0 0 15 12" fill="none" xmlns="http://www.w3.org/2000/svg">
<path d="M1.99316 11.686H12.9746C14.3076 11.686 14.9678 11.0259 14.9678 9.71826V1.96777C14.9678 0.660156 14.3076 0 12.9746 0H1.99316C0.666504 0 0 0.653809 0 1.96777V9.71826C0 11.0322 0.666504 11.686 1.99316 11.686ZM1.02197 2.01855C1.02197 1.3584 1.37109 1.02197 2.00586 1.02197H12.9619C13.5903 1.02197 13.9458 1.3584 13.9458 2.01855V2.13281H1.02197V2.01855ZM2.00586 10.6641C1.37109 10.6641 1.02197 10.3276 1.02197 9.66748V3.02783H13.9458V9.66748C13.9458 10.3276 13.5903 10.6641 12.9619 10.6641H2.00586ZM2.72949 9.10254C2.72949 9.43262 2.95801 9.65479 3.29443 9.65479H11.6924C12.0288 9.65479 12.2573 9.43262 12.2573 9.10254V8.15039C12.2573 7.82031 12.0288 7.59814 11.6924 7.59814H3.29443C2.95801 7.59814 2.72949 7.82031 2.72949 8.15039V9.10254Z" fill="#0A84FF"/>
</svg>
