<svg width="11" height="14" viewBox="0 0 11 14" fill="none" xmlns="http://www.w3.org/2000/svg">
<path d="M1.96777 13.6094H8.70898C10.0229 13.6094 10.6768 12.9429 10.6768 11.6226V5.85889C10.6768 5.04004 10.5815 4.68457 10.0737 4.16406L6.57617 0.603027C6.09375 0.10791 5.69385 0 4.98291 0H1.96777C0.660156 0 0 0.672852 0 1.99316V11.6226C0 12.9492 0.653809 13.6094 1.96777 13.6094ZM2.01221 12.5874C1.3584 12.5874 1.02197 12.2383 1.02197 11.6035V2.01221C1.02197 1.38379 1.3584 1.02197 2.01855 1.02197H4.84326V4.70996C4.84326 5.50977 5.24316 5.90332 6.03662 5.90332H9.65479V11.6035C9.65479 12.2383 9.31836 12.5874 8.6582 12.5874H2.01221ZM6.15088 4.94482C5.89697 4.94482 5.80176 4.84326 5.80176 4.58936V1.21875L9.45801 4.94482H6.15088Z" fill="#0A84FF"/>
</svg>
