<svg width="13" height="13" viewBox="0 0 13 13" fill="none" xmlns="http://www.w3.org/2000/svg">
<path d="M6.47461 12.9492C10.0166 12.9492 12.9492 10.0103 12.9492 6.47461C12.9492 2.93262 10.0103 0 6.46826 0C2.93262 0 0 2.93262 0 6.47461C0 10.0103 2.93896 12.9492 6.47461 12.9492ZM6.47461 11.8701C3.47852 11.8701 1.08545 9.4707 1.08545 6.47461C1.08545 3.47852 3.47217 1.0791 6.46826 1.0791C9.46436 1.0791 11.8638 3.47852 11.8701 6.47461C11.8765 9.4707 9.4707 11.8701 6.47461 11.8701ZM3.15479 7.16016H6.46826C6.71582 7.16016 6.9126 6.96973 6.9126 6.71582V2.4375C6.9126 2.18994 6.71582 1.99951 6.46826 1.99951C6.2207 1.99951 6.03027 2.18994 6.03027 2.4375V6.27783H3.15479C2.90088 6.27783 2.71045 6.46826 2.71045 6.71582C2.71045 6.96973 2.90088 7.16016 3.15479 7.16016Z" fill="#0A84FF"/>
</svg>
