<svg width="112" height="112" viewBox="0 0 112 112" fill="none" xmlns="http://www.w3.org/2000/svg">
<g filter="url(#filter0_d_294_2230)">
<mask id="mask0_294_2230" style="mask-type:alpha" maskUnits="userSpaceOnUse" x="4" y="2" width="104" height="104">
<path d="M107.993 30.6857C107.987 29.6456 107.975 28.6057 107.946 27.5661C107.885 25.3002 107.752 23.0149 107.349 20.7742C106.94 18.5012 106.273 16.3858 105.221 14.3205C104.187 12.2907 102.836 10.4332 101.225 8.82283C99.6138 7.21248 97.7558 5.86275 95.7252 4.82945C93.6578 3.77746 91.5401 3.1103 89.2646 2.70175C87.0237 2.29938 84.7377 2.16597 82.4718 2.10476C81.4315 2.07661 80.3911 2.06475 79.3505 2.05831C78.1151 2.05074 76.8797 2.05137 75.6444 2.05137L61.3005 2H50.5725L36.4825 2.05137C35.2447 2.05137 34.0069 2.05074 32.7692 2.05831C31.7264 2.06475 30.6841 2.07661 29.6417 2.10476C27.3705 2.16597 25.0794 2.2995 22.8332 2.70238C20.5547 3.1108 18.4338 3.77771 16.3637 4.82894C14.3287 5.86237 12.4667 7.21222 10.8522 8.82283C9.23795 10.4331 7.88483 12.2902 6.849 14.3197C5.79437 16.3859 5.12569 18.5026 4.716 20.7769C4.31263 23.0166 4.17897 25.3012 4.1175 27.5661C4.08948 28.6059 4.07737 29.6457 4.07106 30.6857C4.06348 31.9206 4 33.4545 4 34.6892V48.584V59.427L4.06412 73.617C4.06412 74.8534 4.06361 76.0898 4.07106 77.3261C4.07737 78.3677 4.08948 79.4089 4.11763 80.45C4.17897 82.7189 4.31288 85.0075 4.71664 87.2512C5.1262 89.5272 5.79474 91.6457 6.84849 93.7135C7.88445 95.7463 9.23783 97.6062 10.8522 99.2188C12.4666 100.831 14.3281 102.183 16.3627 103.218C18.4341 104.271 20.5559 104.939 22.8359 105.348C25.081 105.751 27.3714 105.885 29.6417 105.946C30.6841 105.974 31.7265 105.986 32.7693 105.993C34.0071 106 35.2447 106 36.4825 106H50.6998H61.4545H75.6444C76.8797 106 78.1151 106 79.3505 105.993C80.3911 105.986 81.4315 105.974 82.4718 105.946C84.7386 105.885 87.0253 105.751 89.2673 105.348C91.5413 104.939 93.6581 104.271 95.7243 103.218C97.7553 102.183 99.6137 100.832 101.225 99.2188C102.836 97.6064 104.187 95.7468 105.221 93.7144C106.273 91.6455 106.94 89.526 107.349 87.2485C107.752 85.0057 107.885 82.718 107.947 80.45C107.975 79.4088 107.987 78.3675 107.993 77.3261C108 76.0898 108 74.8534 108 73.617C108 73.617 108 59.6775 108 59.427V48.5726C108 48.3876 108 34.3898 108 34.3898C108 33.1552 108 31.9205 107.993 30.6857Z" fill="#8E8E93"/>
</mask>
<g mask="url(#mask0_294_2230)">
<path d="M107.993 30.6857C107.987 29.6456 107.975 28.6057 107.946 27.5661C107.885 25.3002 107.752 23.0149 107.349 20.7742C106.94 18.5012 106.273 16.3858 105.221 14.3205C104.187 12.2907 102.836 10.4332 101.225 8.82283C99.6138 7.21248 97.7558 5.86275 95.7252 4.82945C93.6578 3.77746 91.5401 3.1103 89.2646 2.70175C87.0237 2.29938 84.7377 2.16597 82.4718 2.10476C81.4315 2.07661 80.3911 2.06475 79.3505 2.05831C78.1151 2.05074 76.8797 2.05137 75.6444 2.05137L61.3005 2H50.5725L36.4825 2.05137C35.2447 2.05137 34.0069 2.05074 32.7692 2.05831C31.7264 2.06475 30.6841 2.07661 29.6417 2.10476C27.3705 2.16597 25.0794 2.2995 22.8332 2.70238C20.5547 3.1108 18.4338 3.77771 16.3637 4.82894C14.3287 5.86237 12.4667 7.21222 10.8522 8.82283C9.23795 10.4331 7.88483 12.2902 6.849 14.3197C5.79437 16.3859 5.12569 18.5026 4.716 20.7769C4.31263 23.0166 4.17897 25.3012 4.1175 27.5661C4.08948 28.6059 4.07737 29.6457 4.07106 30.6857C4.06348 31.9206 4 33.4545 4 34.6892V48.584V59.427L4.06412 73.617C4.06412 74.8534 4.06361 76.0898 4.07106 77.3261C4.07737 78.3677 4.08948 79.4089 4.11763 80.45C4.17897 82.7189 4.31288 85.0075 4.71664 87.2512C5.1262 89.5272 5.79474 91.6457 6.84849 93.7135C7.88445 95.7463 9.23783 97.6062 10.8522 99.2188C12.4666 100.831 14.3281 102.183 16.3627 103.218C18.4341 104.271 20.5559 104.939 22.8359 105.348C25.081 105.751 27.3714 105.885 29.6417 105.946C30.6841 105.974 31.7265 105.986 32.7693 105.993C34.0071 106 35.2447 106 36.4825 106H50.6998H61.4545H75.6444C76.8797 106 78.1151 106 79.3505 105.993C80.3911 105.986 81.4315 105.974 82.4718 105.946C84.7386 105.885 87.0253 105.751 89.2673 105.348C91.5413 104.939 93.6581 104.271 95.7243 103.218C97.7553 102.183 99.6137 100.832 101.225 99.2188C102.836 97.6064 104.187 95.7468 105.221 93.7144C106.273 91.6455 106.94 89.526 107.349 87.2485C107.752 85.0057 107.885 82.718 107.947 80.45C107.975 79.4088 107.987 78.3675 107.993 77.3261C108 76.0898 108 74.8534 108 73.617C108 73.617 108 59.6775 108 59.427V48.5726C108 48.3876 108 34.3898 108 34.3898C108 33.1552 108 31.9205 107.993 30.6857Z" fill="url(#paint0_linear_294_2230)"/>
<g style="mix-blend-mode:hard-light" filter="url(#filter1_ddiii_294_2230)">
<path d="M120 118V-10H73.0067C69.7029 -10 68.0511 -10 66.7848 -9.36727C65.6225 -8.78651 64.6802 -7.84415 64.0994 -6.68187C63.4667 -5.41558 63.4667 -3.76372 63.4667 -0.460001V2C63.4667 2 49.66 14.1566 47.3315 47.0667C47.2687 47.9543 47.2143 48.8031 47.1687 49.6431C47.0559 51.7206 46.9995 52.7593 47.4027 53.6498C47.7599 54.4389 48.4331 55.1496 49.2017 55.5491C50.069 56 51.166 56 53.36 56H56.6632C59.3409 56 60.6797 56 61.5598 56.4676C62.4173 56.9232 62.9802 57.5359 63.3616 58.4289C63.753 59.3454 63.6326 60.7639 63.3916 63.6009C62.5975 72.9511 62.3359 89.6077 67.8 106V108.46C67.8 111.764 67.8 113.416 68.4327 114.682C69.0135 115.844 69.9558 116.787 71.1181 117.367C72.3844 118 74.0363 118 77.34 118H120Z" fill="url(#paint1_linear_294_2230)"/>
</g>
<g opacity="0.75" filter="url(#filter2_dd_294_2230)">
<path fill-rule="evenodd" clip-rule="evenodd" d="M28 30.5C28 29.1193 29.1193 28 30.5 28C31.8807 28 33 29.1193 33 30.5V41.5C33 42.8807 31.8807 44 30.5 44C29.1193 44 28 42.8807 28 41.5V30.5ZM22.3527 69.1195C23.3897 68.2111 24.9659 68.3138 25.8763 69.3479L25.8876 69.3605C25.9005 69.3747 25.9238 69.4003 25.9575 69.4365C26.025 69.5089 26.1341 69.6237 26.2847 69.7749C26.5858 70.0774 27.052 70.5248 27.681 71.0692C28.9399 72.159 30.8449 73.6321 33.3793 75.111C38.4409 78.0643 46.0106 81.0405 56 81.0405C65.9894 81.0405 73.5591 78.0643 78.6207 75.111C81.1551 73.6321 83.0601 72.159 84.319 71.0692C84.948 70.5248 85.4142 70.0774 85.7153 69.7749C85.8659 69.6237 85.975 69.5089 86.0425 69.4365C86.0762 69.4003 86.0995 69.3747 86.1124 69.3605L86.1209 69.3511L86.1237 69.3479C87.0341 68.3138 88.6103 68.2111 89.6473 69.1195C90.6859 70.0292 90.7903 71.6087 89.8805 72.6473L88.1002 71.0878C89.8805 72.6473 89.8797 72.6482 89.8789 72.6492L89.877 72.6513L89.8724 72.6566L89.8601 72.6704L89.8233 72.7115C89.7933 72.7447 89.7524 72.7895 89.7005 72.8452C89.5968 72.9564 89.4494 73.1111 89.2585 73.3028C88.8769 73.6861 88.3206 74.2185 87.5914 74.8497C86.1339 76.1113 83.9792 77.7733 81.1405 79.4296C75.4558 82.7465 67.0256 86.0405 56 86.0405C44.9744 86.0405 36.5442 82.7465 30.8595 79.4296C28.0208 77.7733 25.8661 76.1113 24.4086 74.8497C23.6794 74.2185 23.1231 73.6861 22.7415 73.3028C22.5506 73.111 22.4032 72.9564 22.2995 72.8452C22.2476 72.7895 22.2067 72.7447 22.1767 72.7115L22.1399 72.6704L22.1276 72.6566L22.123 72.6513L22.1211 72.6492C22.1203 72.6482 22.1195 72.6473 24 71L22.1195 72.6473C21.2097 71.6087 21.3141 70.0292 22.3527 69.1195ZM81.5 28C80.1193 28 79 29.1193 79 30.5V41.5C79 42.8807 80.1193 44 81.5 44C82.8807 44 84 42.8807 84 41.5V30.5C84 29.1193 82.8807 28 81.5 28Z" fill="#000033"/>
</g>
<path opacity="0.1" d="M108 73.617C107.5 73.617 107.5 73.6169 107.5 73.6168V73.6164V73.6156V73.6144V73.613V73.6113V73.6092V73.6069V73.6042V73.6012V73.598V73.5944V73.5905V73.5863V73.5818V73.577V73.5719V73.5665V73.5608V73.5548V73.5485V73.542V73.5351V73.5279V73.5205V73.5128V73.5047V73.4964V73.4878V73.479V73.4698V73.4604V73.4507V73.4407V73.4304V73.4198V73.409V73.3979V73.3866V73.3749V73.363V73.3508V73.3384V73.3257V73.3127V73.2995V73.286V73.2722V73.2582V73.2439V73.2294V73.2146V73.1995V73.1842V73.1687V73.1529V73.1368V73.1205V73.104V73.0872V73.0701V73.0528V73.0353V73.0175V72.9995V72.9813V72.9628V72.9441V72.9251V72.9059V72.8865V72.8668V72.847V72.8268V72.8065V72.7859V72.7651V72.7441V72.7229V72.7014V72.6797V72.6578V72.6357V72.6134V72.5908V72.5681V72.5451V72.5219V72.4985V72.4749V72.4511V72.4271V72.4028V72.3784V72.3538V72.3289V72.3039V72.2787V72.2532V72.2276V72.2018V72.1757V72.1495V72.1231V72.0965V72.0697V72.0428V72.0156V71.9883V71.9607V71.933V71.9051V71.877V71.8488V71.8203V71.7917V71.7629V71.734V71.7048V71.6755V71.6461V71.6164V71.5866V71.5566V71.5265V71.4961V71.4657V71.435V71.4042V71.3733V71.3421V71.3109V71.2794V71.2479V71.2161V71.1842V71.1522V71.12V71.0876V71.0552V71.0225V70.9897V70.9568V70.9237V70.8905V70.8572V70.8237V70.7901V70.7563V70.7224V70.6884V70.6542V70.6199V70.5855V70.551V70.5163V70.4815V70.4465V70.4115V70.3763V70.341V70.3056V70.2701V70.2344V70.1986V70.1627V70.1267V70.0906V70.0544V70.0181V69.9816V69.9451V69.9084V69.8716V69.8348V69.7978V69.7607V69.7235V69.6863V69.6489V69.6114V69.5739V69.5362V69.4985V69.4606V69.4227V69.3847V69.3465V69.3083V69.2701V69.2317V69.1932V69.1547V69.1161V69.0774V69.0386V68.9998V68.9609V68.9219V68.8828V68.8436V68.8044V68.7651V68.7258V68.6864V68.6469V68.6073V68.5677V68.528V68.4883V68.4485V68.4087V68.3687V68.3288V68.2887V68.2487V68.2085V68.1684V68.1281V68.0879V68.0475V68.0072V67.9668V67.9263V67.8858V67.8452V67.8047V67.764V67.7234V67.6827V67.642V67.6012V67.5604V67.5196V67.4787V67.4378V67.3969V67.356V67.315V67.274V67.233V67.192V67.1509V67.1098V67.0687V67.0276V66.9865V66.9454V66.9042V66.8631V66.8219V66.7807V66.7395V66.6983V66.6571V66.6159V66.5747V66.5335V66.4923V66.4511V66.4099V66.3687V66.3275V66.2863V66.2451V66.2039V66.1628V66.1216V66.0805V66.0393V65.9982V65.9571V65.916V65.875V65.8339V65.7929V65.7519V65.7109V65.67V65.629V65.5881V65.5472V65.5064V65.4656V65.4248V65.384V65.3433V65.3026V65.262V65.2214V65.1808V65.1403V65.0998V65.0594V65.019V64.9786V64.9383V64.898V64.8578V64.8177V64.7775V64.7375V64.6975V64.6575V64.6176V64.5778V64.538V64.4983V64.4587V64.4191V64.3796V64.3401V64.3007V64.2614V64.2221V64.1829V64.1438V64.1048V64.0658V64.0269V63.9881V63.9493V63.9107V63.8721V63.8336V63.7951V63.7568V63.7186V63.6804V63.6423V63.6043V63.5664V63.5286V63.4909V63.4533V63.4157V63.3783V63.341V63.3037V63.2666V63.2295V63.1926V63.1558V63.119V63.0824V63.0459V63.0095V62.9732V62.937V62.9009V62.865V62.8291V62.7934V62.7578V62.7223V62.6869V62.6517V62.6165V62.5815V62.5466V62.5119V62.4772V62.4427V62.4083V62.3741V62.34V62.306V62.2722V62.2384V62.2049V62.1714V62.1381V62.105V62.072V62.0391V62.0064V61.9738V61.9413V61.909V61.8769V61.8449V61.8131V61.7814V61.7499V61.7185V61.6873V61.6562V61.6253V61.5946V61.564V61.5336V61.5033V61.4732V61.4433V61.4135V61.3839V61.3545V61.3253V61.2962V61.2673V61.2386V61.21V61.1817V61.1535V61.1254V61.0976V61.07V61.0425V61.0152V60.9881V60.9612V60.9345V60.908V60.8816V60.8555V60.8295V60.8038V60.7782V60.7529V60.7277V60.7027V60.678V60.6534V60.629V60.6049V60.5809V60.5572V60.5337V60.5103V60.4872V60.4643V60.4416V60.4192V60.3969V60.3749V60.353V60.3314V60.31V60.2889V60.2679V60.2472V60.2267V60.2065V60.1865V60.1667V60.1471V60.1277V60.1086V60.0898V60.0711V60.0527V60.0346V60.0166V59.999V59.9815V59.9643V59.9474V59.9306V59.9142V59.898V59.882V59.8663V59.8508V59.8356V59.8207V59.806V59.7915V59.7773V59.7634V59.7497V59.7363V59.7232V59.7103V59.6977V59.6853V59.6732V59.6614V59.6499V59.6386V59.6276V59.6169V59.6064V59.5963V59.5864V59.5768V59.5674V59.5584V59.5496V59.5411V59.5329V59.525V59.5173V59.51V59.503V59.4962V59.4897V59.4835V59.4777V59.4721V59.4668V59.4618V59.4571V59.4527V59.4486V59.4449V59.4414V59.4382V59.4353V59.4328V59.4305V59.4286V59.427V48.5726V48.5714V48.5698V48.568V48.5658V48.5633V48.5605V48.5574V48.554V48.5502V48.5462V48.5419V48.5372V48.5323V48.5271V48.5215V48.5157V48.5096V48.5031V48.4964V48.4894V48.4821V48.4745V48.4666V48.4584V48.45V48.4412V48.4322V48.4229V48.4133V48.4035V48.3933V48.3829V48.3722V48.3612V48.3499V48.3384V48.3266V48.3146V48.3022V48.2896V48.2768V48.2636V48.2502V48.2366V48.2226V48.2085V48.194V48.1793V48.1644V48.1492V48.1337V48.118V48.102V48.0858V48.0693V48.0526V48.0356V48.0184V48.001V47.9833V47.9654V47.9472V47.9288V47.9101V47.8912V47.8721V47.8527V47.8331V47.8133V47.7933V47.773V47.7525V47.7317V47.7108V47.6896V47.6682V47.6465V47.6247V47.6026V47.5803V47.5578V47.5351V47.5122V47.489V47.4657V47.4421V47.4183V47.3943V47.3701V47.3457V47.3211V47.2963V47.2713V47.2461V47.2207V47.1951V47.1693V47.1433V47.1171V47.0907V47.0641V47.0373V47.0104V46.9832V46.9559V46.9284V46.9007V46.8728V46.8447V46.8165V46.788V46.7594V46.7307V46.7017V46.6726V46.6433V46.6138V46.5841V46.5543V46.5243V46.4942V46.4639V46.4334V46.4027V46.3719V46.3409V46.3098V46.2785V46.2471V46.2155V46.1837V46.1518V46.1198V46.0875V46.0552V46.0227V45.99V45.9572V45.9243V45.8912V45.8579V45.8246V45.7911V45.7574V45.7236V45.6897V45.6556V45.6214V45.5871V45.5527V45.5181V45.4834V45.4485V45.4136V45.3785V45.3433V45.3079V45.2725V45.2369V45.2012V45.1654V45.1294V45.0934V45.0572V45.021V44.9846V44.9481V44.9115V44.8748V44.838V44.8011V44.764V44.7269V44.6897V44.6524V44.615V44.5774V44.5398V44.5021V44.4643V44.4264V44.3884V44.3503V44.3122V44.2739V44.2356V44.1972V44.1586V44.1201V44.0814V44.0426V44.0038V43.9649V43.9259V43.8868V43.8477V43.8085V43.7692V43.7299V43.6905V43.651V43.6114V43.5718V43.5322V43.4924V43.4526V43.4127V43.3728V43.3328V43.2928V43.2527V43.2126V43.1724V43.1321V43.0918V43.0515V43.0111V42.9707V42.9302V42.8896V42.8491V42.8085V42.7678V42.7271V42.6864V42.6456V42.6048V42.564V42.5231V42.4822V42.4413V42.4003V42.3593V42.3183V42.2773V42.2362V42.1951V42.154V42.1129V42.0718V42.0306V41.9894V41.9482V41.907V41.8658V41.8246V41.7833V41.7421V41.7008V41.6595V41.6183V41.577V41.5357V41.4944V41.4531V41.4118V41.3706V41.3293V41.288V41.2468V41.2055V41.1643V41.123V41.0818V41.0406V40.9994V40.9582V40.917V40.8758V40.8347V40.7936V40.7525V40.7114V40.6704V40.6293V40.5883V40.5474V40.5064V40.4655V40.4246V40.3837V40.3429V40.3021V40.2614V40.2207V40.18V40.1394V40.0988V40.0582V40.0177V39.9772V39.9368V39.8964V39.8561V39.8158V39.7756V39.7354V39.6953V39.6552V39.6152V39.5753V39.5354V39.4955V39.4558V39.416V39.3764V39.3368V39.2973V39.2578V39.2184V39.1791V39.1399V39.1007V39.0616V39.0226V38.9836V38.9447V38.9059V38.8672V38.8286V38.79V38.7515V38.7132V38.6748V38.6366V38.5985V38.5605V38.5225V38.4846V38.4469V38.4092V38.3716V38.3341V38.2968V38.2595V38.2223V38.1852V38.1482V38.1114V38.0746V38.0379V38.0014V37.9649V37.9286V37.8924V37.8563V37.8203V37.7844V37.7486V37.713V37.6774V37.642V37.6067V37.5716V37.5365V37.5016V37.4668V37.4322V37.3976V37.3632V37.329V37.2948V37.2608V37.227V37.1932V37.1596V37.1262V37.0929V37.0597V37.0266V36.9938V36.961V36.9284V36.896V36.8637V36.8315V36.7995V36.7677V36.736V36.7044V36.6731V36.6418V36.6108V36.5799V36.5491V36.5185V36.4881V36.4579V36.4278V36.3979V36.3681V36.3385V36.3091V36.2799V36.2508V36.2219V36.1932V36.1647V36.1363V36.1082V36.0802V36.0524V36.0247V35.9973V35.97V35.943V35.9161V35.8894V35.8629V35.8366V35.8105V35.7845V35.7588V35.7333V35.708V35.6828V35.6579V35.6332V35.6087V35.5843V35.5602V35.5363V35.5126V35.4891V35.4659V35.4428V35.42V35.3973V35.3749V35.3527V35.3307V35.309V35.2874V35.2661V35.245V35.2241V35.2035V35.1831V35.1629V35.1429V35.1232V35.1037V35.0844V35.0654V35.0466V35.028V35.0097V34.9917V34.9738V34.9562V34.9389V34.9218V34.9049V34.8883V34.8719V34.8558V34.8399V34.8243V34.809V34.7938V34.779V34.7644V34.7501V34.736V34.7222V34.7086V34.6953V34.6823V34.6695V34.6571V34.6448V34.6329V34.6212V34.6098V34.5986V34.5878V34.5772V34.5669V34.5568V34.5471V34.5376V34.5284V34.5195V34.5109V34.5025V34.4945V34.4867V34.4792V34.472V34.4651V34.4585V34.4522V34.4462V34.4405V34.4351V34.43V34.4252V34.4207V34.4164V34.4125V34.4089V34.4056V34.4026V34.4V34.3976V34.3955V34.3938V34.3924V34.3913V34.3905V34.39C107.5 34.3899 107.5 34.3899 107.58 34.3899C107.648 34.3898 107.772 34.3898 108 34.3898H107.5C107.5 33.155 107.5 31.9217 107.493 30.6887C107.487 29.6502 107.475 28.6143 107.447 27.5796C107.386 25.322 107.253 23.0662 106.857 20.8627L107.349 20.7742L106.857 20.8627C106.455 18.6316 105.802 16.5637 104.775 14.5474C103.765 12.5645 102.446 10.7498 100.871 9.17651L101.225 8.82283L100.871 9.17647C99.2974 7.60317 97.4822 6.28451 95.4984 5.27507C93.48 4.248 91.4099 3.59491 89.1762 3.19388L89.2646 2.702L89.1762 3.19387C86.9725 2.79817 84.716 2.66557 82.4583 2.60457L82.4718 2.10476L82.4583 2.60457C81.4229 2.57656 80.3865 2.56473 79.3474 2.5583C78.2019 2.55128 77.0562 2.55132 75.9088 2.55136L75.6444 2.55137H75.6426L61.3005 2.5H61.2997H50.5734H50.5725L36.4843 2.55137L36.4825 2.55137L36.2175 2.55136C35.0679 2.55132 33.92 2.55128 32.7723 2.5583L108 73.617ZM108 73.617H107.5C107.5 74.8536 107.5 76.0886 107.493 77.3232C107.487 78.3629 107.475 79.4002 107.447 80.4365C107.386 82.6962 107.253 84.9545 106.857 87.1601C106.456 89.3959 105.802 91.4678 104.775 93.4877C103.765 95.4732 102.445 97.2901 100.871 98.8654L100.871 98.8654C99.297 100.441 97.4814 101.762 95.4973 102.773C93.4801 103.8 91.4109 104.454 89.1787 104.856C86.974 105.252 84.7168 105.385 82.4583 105.446C81.4229 105.474 80.3864 105.486 79.3475 105.493C78.1138 105.5 76.88 105.5 75.6444 105.5H61.4545H50.6998H36.4825C35.2444 105.5 34.0083 105.5 32.7723 105.493C31.7312 105.486 30.6927 105.474 29.6552 105.446C27.3931 105.385 25.1323 105.252 22.9242 104.856L22.8359 105.348L22.9242 104.856C20.6861 104.455 18.6117 103.801 16.5893 102.772C14.6017 101.761 12.7829 100.441 11.2056 98.8651C9.62826 97.2895 8.30601 95.4723 7.29399 93.4865C6.2652 91.4676 5.61075 89.3967 5.20873 87.1626C4.81167 84.9561 4.67856 82.6971 4.61745 80.4365C4.58944 79.4003 4.57735 78.363 4.57105 77.3231C4.56406 76.1621 4.56408 75.001 4.56411 73.8381L4.56412 73.617L4.56411 73.6147L4.5 59.427V59.4258V48.584V34.6892C4.5 34.0788 4.5157 33.3926 4.53254 32.6997L4.53622 32.5486C4.55185 31.9081 4.56751 31.2664 4.57105 30.6888L4.57105 30.6888C4.57735 29.6505 4.58943 28.6145 4.61732 27.5797L108 73.617ZM29.6552 2.60457L29.6552 2.60458C27.3922 2.66557 25.1306 2.7983 22.9215 3.19452L22.9214 3.19453C20.6847 3.59547 18.6113 4.24836 16.5901 5.27475M29.6552 2.60457L4.61732 27.5796C4.67857 25.3229 4.81142 23.068 5.20809 20.8655C5.61022 18.6332 6.26475 16.5641 7.29434 14.547L7.29435 14.547C8.30621 12.5644 9.62817 10.75 11.2053 9.17683L11.2053 9.17681C12.7827 7.60324 14.602 6.2844 16.5901 5.27475M29.6552 2.60457C30.6926 2.57656 31.731 2.56473 32.7722 2.5583L29.6552 2.60457ZM16.5901 5.27475L16.3637 4.82894L16.5901 5.27475Z" stroke="black"/>
</g>
</g>
<defs>
<filter id="filter0_d_294_2230" x="0" y="0" width="112" height="112" filterUnits="userSpaceOnUse" color-interpolation-filters="sRGB">
<feFlood flood-opacity="0" result="BackgroundImageFix"/>
<feColorMatrix in="SourceAlpha" type="matrix" values="0 0 0 0 0 0 0 0 0 0 0 0 0 0 0 0 0 0 127 0" result="hardAlpha"/>
<feOffset dy="2"/>
<feGaussianBlur stdDeviation="2"/>
<feColorMatrix type="matrix" values="0 0 0 0 0 0 0 0 0 0 0 0 0 0 0 0 0 0 0.15 0"/>
<feBlend mode="normal" in2="BackgroundImageFix" result="effect1_dropShadow_294_2230"/>
<feBlend mode="normal" in="SourceGraphic" in2="effect1_dropShadow_294_2230" result="shape"/>
</filter>
<filter id="filter1_ddiii_294_2230" x="35.0862" y="-22" width="96.9138" height="152" filterUnits="userSpaceOnUse" color-interpolation-filters="sRGB">
<feFlood flood-opacity="0" result="BackgroundImageFix"/>
<feColorMatrix in="SourceAlpha" type="matrix" values="0 0 0 0 0 0 0 0 0 0 0 0 0 0 0 0 0 0 127 0" result="hardAlpha"/>
<feOffset dy="2"/>
<feGaussianBlur stdDeviation="2"/>
<feColorMatrix type="matrix" values="0 0 0 0 0 0 0 0 0 0 0 0 0 0 0 0 0 0 0.2 0"/>
<feBlend mode="normal" in2="BackgroundImageFix" result="effect1_dropShadow_294_2230"/>
<feColorMatrix in="SourceAlpha" type="matrix" values="0 0 0 0 0 0 0 0 0 0 0 0 0 0 0 0 0 0 127 0" result="hardAlpha"/>
<feOffset/>
<feGaussianBlur stdDeviation="6"/>
<feColorMatrix type="matrix" values="0 0 0 0 0.117647 0 0 0 0 0.243137 0 0 0 0 0.494118 0 0 0 0.2 0"/>
<feBlend mode="normal" in2="effect1_dropShadow_294_2230" result="effect2_dropShadow_294_2230"/>
<feBlend mode="normal" in="SourceGraphic" in2="effect2_dropShadow_294_2230" result="shape"/>
<feColorMatrix in="SourceAlpha" type="matrix" values="0 0 0 0 0 0 0 0 0 0 0 0 0 0 0 0 0 0 127 0" result="hardAlpha"/>
<feOffset/>
<feGaussianBlur stdDeviation="4"/>
<feComposite in2="hardAlpha" operator="arithmetic" k2="-1" k3="1"/>
<feColorMatrix type="matrix" values="0 0 0 0 1 0 0 0 0 1 0 0 0 0 1 0 0 0 0.25 0"/>
<feBlend mode="normal" in2="shape" result="effect3_innerShadow_294_2230"/>
<feColorMatrix in="SourceAlpha" type="matrix" values="0 0 0 0 0 0 0 0 0 0 0 0 0 0 0 0 0 0 127 0" result="hardAlpha"/>
<feOffset dy="2"/>
<feGaussianBlur stdDeviation="1"/>
<feComposite in2="hardAlpha" operator="arithmetic" k2="-1" k3="1"/>
<feColorMatrix type="matrix" values="0 0 0 0 1 0 0 0 0 1 0 0 0 0 1 0 0 0 0.25 0"/>
<feBlend mode="normal" in2="effect3_innerShadow_294_2230" result="effect4_innerShadow_294_2230"/>
<feColorMatrix in="SourceAlpha" type="matrix" values="0 0 0 0 0 0 0 0 0 0 0 0 0 0 0 0 0 0 127 0" result="hardAlpha"/>
<feOffset dy="-1"/>
<feGaussianBlur stdDeviation="1"/>
<feComposite in2="hardAlpha" operator="arithmetic" k2="-1" k3="1"/>
<feColorMatrix type="matrix" values="0 0 0 0 0 0 0 0 0 0 0 0 0 0 0 0 0 0 0.25 0"/>
<feBlend mode="normal" in2="effect4_innerShadow_294_2230" result="effect5_innerShadow_294_2230"/>
</filter>
<filter id="filter2_dd_294_2230" x="17.5" y="26" width="77.0001" height="66.0405" filterUnits="userSpaceOnUse" color-interpolation-filters="sRGB">
<feFlood flood-opacity="0" result="BackgroundImageFix"/>
<feColorMatrix in="SourceAlpha" type="matrix" values="0 0 0 0 0 0 0 0 0 0 0 0 0 0 0 0 0 0 127 0" result="hardAlpha"/>
<feOffset dy="2"/>
<feGaussianBlur stdDeviation="2"/>
<feColorMatrix type="matrix" values="0 0 0 0 0 0 0 0 0 0 0 0 0 0 0 0 0 0 0.15 0"/>
<feBlend mode="normal" in2="BackgroundImageFix" result="effect1_dropShadow_294_2230"/>
<feColorMatrix in="SourceAlpha" type="matrix" values="0 0 0 0 0 0 0 0 0 0 0 0 0 0 0 0 0 0 127 0" result="hardAlpha"/>
<feOffset dy="1"/>
<feGaussianBlur stdDeviation="0.5"/>
<feColorMatrix type="matrix" values="0 0 0 0 0 0 0 0 0 0 0 0 0 0 0 0 0 0 0.15 0"/>
<feBlend mode="normal" in2="effect1_dropShadow_294_2230" result="effect2_dropShadow_294_2230"/>
<feBlend mode="normal" in="SourceGraphic" in2="effect2_dropShadow_294_2230" result="shape"/>
</filter>
<linearGradient id="paint0_linear_294_2230" x1="56" y1="2" x2="56" y2="106" gradientUnits="userSpaceOnUse">
<stop stop-color="#3ED4F9"/>
<stop offset="1" stop-color="#2E6DEA"/>
</linearGradient>
<linearGradient id="paint1_linear_294_2230" x1="78.2" y1="-1.46667" x2="78.2" y2="109.467" gradientUnits="userSpaceOnUse">
<stop stop-color="white"/>
<stop offset="1" stop-color="white" stop-opacity="0.8"/>
</linearGradient>
</defs>
</svg>
